<mxfile host="app.diagrams.net" modified="2021-01-27T11:14:22.707Z" agent="5.0 (Windows NT 10.0; Win64; x64) AppleWebKit/537.36 (KHTML, like Gecko) Chrome/87.0.4280.141 Safari/537.36" etag="9J0KhJOersuvPSlBbQ0K" version="14.2.7" type="github">
  <diagram id="dJ71zBX1iKau7Kkw3Q4T" name="Page-1">
    <mxGraphModel dx="1422" dy="839" grid="0" gridSize="10" guides="1" tooltips="1" connect="1" arrows="1" fold="1" page="1" pageScale="1" pageWidth="2339" pageHeight="3300" math="0" shadow="0">
      <root>
        <mxCell id="0" />
        <mxCell id="1" parent="0" />
        <mxCell id="HcCG96OIo7KXhbLCu2V7-1" value="BeisenCloud" style="shape=umlLifeline;perimeter=lifelinePerimeter;whiteSpace=wrap;html=1;container=1;collapsible=0;recursiveResize=0;outlineConnect=0;" parent="1" vertex="1">
          <mxGeometry x="200" y="70" width="100" height="670" as="geometry" />
        </mxCell>
        <mxCell id="r_-kAhgJVvPjxMnhOgyb-1" value="" style="html=1;points=[];perimeter=orthogonalPerimeter;" vertex="1" parent="HcCG96OIo7KXhbLCu2V7-1">
          <mxGeometry x="45" y="80" width="10" height="577" as="geometry" />
        </mxCell>
        <mxCell id="r_-kAhgJVvPjxMnhOgyb-12" value="" style="html=1;points=[];perimeter=orthogonalPerimeter;" vertex="1" parent="HcCG96OIo7KXhbLCu2V7-1">
          <mxGeometry x="52" y="232" width="10" height="17" as="geometry" />
        </mxCell>
        <mxCell id="r_-kAhgJVvPjxMnhOgyb-13" value="写入JobAd&lt;br&gt;对象数据" style="edgeStyle=orthogonalEdgeStyle;html=1;align=left;spacingLeft=2;endArrow=block;rounded=0;entryX=1;entryY=0;" edge="1" target="r_-kAhgJVvPjxMnhOgyb-12" parent="HcCG96OIo7KXhbLCu2V7-1">
          <mxGeometry relative="1" as="geometry">
            <mxPoint x="57" y="212" as="sourcePoint" />
            <Array as="points">
              <mxPoint x="82" y="212" />
            </Array>
          </mxGeometry>
        </mxCell>
        <mxCell id="HcCG96OIo7KXhbLCu2V7-2" value="BeforeTrigger" style="shape=umlLifeline;perimeter=lifelinePerimeter;whiteSpace=wrap;html=1;container=1;collapsible=0;recursiveResize=0;outlineConnect=0;" parent="1" vertex="1">
          <mxGeometry x="340" y="70" width="100" height="670" as="geometry" />
        </mxCell>
        <mxCell id="r_-kAhgJVvPjxMnhOgyb-4" value="" style="html=1;points=[];perimeter=orthogonalPerimeter;" vertex="1" parent="HcCG96OIo7KXhbLCu2V7-2">
          <mxGeometry x="45" y="96" width="10" height="95" as="geometry" />
        </mxCell>
        <mxCell id="HcCG96OIo7KXhbLCu2V7-3" value="AfterTrigger" style="shape=umlLifeline;perimeter=lifelinePerimeter;whiteSpace=wrap;html=1;container=1;collapsible=0;recursiveResize=0;outlineConnect=0;" parent="1" vertex="1">
          <mxGeometry x="480" y="70" width="100" height="670" as="geometry" />
        </mxCell>
        <mxCell id="r_-kAhgJVvPjxMnhOgyb-15" value="" style="html=1;points=[];perimeter=orthogonalPerimeter;" vertex="1" parent="HcCG96OIo7KXhbLCu2V7-3">
          <mxGeometry x="45" y="278" width="10" height="304" as="geometry" />
        </mxCell>
        <mxCell id="HcCG96OIo7KXhbLCu2V7-4" value="JobAd ESB" style="shape=umlLifeline;perimeter=lifelinePerimeter;whiteSpace=wrap;html=1;container=1;collapsible=0;recursiveResize=0;outlineConnect=0;" parent="1" vertex="1">
          <mxGeometry x="620" y="70" width="100" height="670" as="geometry" />
        </mxCell>
        <mxCell id="r_-kAhgJVvPjxMnhOgyb-7" value="" style="html=1;points=[];perimeter=orthogonalPerimeter;" vertex="1" parent="HcCG96OIo7KXhbLCu2V7-4">
          <mxGeometry x="45" y="109" width="10" height="61" as="geometry" />
        </mxCell>
        <mxCell id="r_-kAhgJVvPjxMnhOgyb-10" value="" style="html=1;points=[];perimeter=orthogonalPerimeter;" vertex="1" parent="HcCG96OIo7KXhbLCu2V7-4">
          <mxGeometry x="52" y="139" width="10" height="14" as="geometry" />
        </mxCell>
        <mxCell id="r_-kAhgJVvPjxMnhOgyb-11" value="需审批，&lt;br&gt;改为草稿" style="edgeStyle=orthogonalEdgeStyle;html=1;align=left;spacingLeft=2;endArrow=block;rounded=0;entryX=1;entryY=0;" edge="1" target="r_-kAhgJVvPjxMnhOgyb-10" parent="HcCG96OIo7KXhbLCu2V7-4">
          <mxGeometry relative="1" as="geometry">
            <mxPoint x="57" y="119" as="sourcePoint" />
            <Array as="points">
              <mxPoint x="82" y="119" />
            </Array>
          </mxGeometry>
        </mxCell>
        <mxCell id="r_-kAhgJVvPjxMnhOgyb-18" value="" style="html=1;points=[];perimeter=orthogonalPerimeter;" vertex="1" parent="HcCG96OIo7KXhbLCu2V7-4">
          <mxGeometry x="45" y="299" width="10" height="251" as="geometry" />
        </mxCell>
        <mxCell id="HcCG96OIo7KXhbLCu2V7-5" value="Adapter ESB" style="shape=umlLifeline;perimeter=lifelinePerimeter;whiteSpace=wrap;html=1;container=1;collapsible=0;recursiveResize=0;outlineConnect=0;" parent="1" vertex="1">
          <mxGeometry x="795" y="70" width="100" height="670" as="geometry" />
        </mxCell>
        <mxCell id="r_-kAhgJVvPjxMnhOgyb-21" value="" style="html=1;points=[];perimeter=orthogonalPerimeter;" vertex="1" parent="HcCG96OIo7KXhbLCu2V7-5">
          <mxGeometry x="43" y="323" width="10" height="184" as="geometry" />
        </mxCell>
        <mxCell id="r_-kAhgJVvPjxMnhOgyb-24" value="" style="html=1;points=[];perimeter=orthogonalPerimeter;" vertex="1" parent="HcCG96OIo7KXhbLCu2V7-5">
          <mxGeometry x="53" y="359" width="10" height="40" as="geometry" />
        </mxCell>
        <mxCell id="r_-kAhgJVvPjxMnhOgyb-25" value="双写：&lt;br&gt;SQL：&lt;br&gt;JobAd_CreateOrUpdate&lt;br&gt;&lt;span style=&quot;font-size: 11px&quot;&gt;JobAdExternal_CreateOrUpdate&lt;/span&gt;&lt;br&gt;&lt;span style=&quot;font-size: 11px&quot;&gt;JobAdLoc_CreateOrUpdate（LocIds，没有渠道信息）&lt;/span&gt;&lt;br&gt;&lt;span style=&quot;font-size: 11px&quot;&gt;JobAdChannel_Apply_CreateOrUpdate&lt;/span&gt;（没有渠道信息）&lt;br&gt;&lt;span style=&quot;font-size: 11px&quot;&gt;JobAdChannelClass_UpdateJobAdClassByJobAdId（分类信息，没有渠道信息）&lt;br&gt;&lt;/span&gt;SearchEngine--RMQ：Recruiting.JobPost 搜索&lt;br&gt;多租赁V3：&lt;br&gt;&lt;span style=&quot;font-size: 11px&quot;&gt;Recruitment.JobADAdditionalEntity&lt;/span&gt;" style="edgeStyle=orthogonalEdgeStyle;html=1;align=left;spacingLeft=2;endArrow=block;rounded=0;entryX=1;entryY=0;" edge="1" target="r_-kAhgJVvPjxMnhOgyb-24" parent="HcCG96OIo7KXhbLCu2V7-5">
          <mxGeometry relative="1" as="geometry">
            <mxPoint x="58" y="339" as="sourcePoint" />
            <Array as="points">
              <mxPoint x="83" y="339" />
            </Array>
          </mxGeometry>
        </mxCell>
        <mxCell id="r_-kAhgJVvPjxMnhOgyb-26" value="" style="html=1;points=[];perimeter=orthogonalPerimeter;" vertex="1" parent="HcCG96OIo7KXhbLCu2V7-5">
          <mxGeometry x="53" y="462" width="10" height="25" as="geometry" />
        </mxCell>
        <mxCell id="r_-kAhgJVvPjxMnhOgyb-27" value="创建 操作记录&lt;br&gt;TitaFeed&lt;br&gt;JobTagData&lt;br&gt;EmailJobRule" style="edgeStyle=orthogonalEdgeStyle;html=1;align=left;spacingLeft=2;endArrow=block;rounded=0;entryX=1;entryY=0;" edge="1" target="r_-kAhgJVvPjxMnhOgyb-26" parent="HcCG96OIo7KXhbLCu2V7-5">
          <mxGeometry x="0.3846" relative="1" as="geometry">
            <mxPoint x="58" y="442" as="sourcePoint" />
            <Array as="points">
              <mxPoint x="83" y="442" />
            </Array>
            <mxPoint as="offset" />
          </mxGeometry>
        </mxCell>
        <mxCell id="HcCG96OIo7KXhbLCu2V7-6" value="User&lt;br&gt;s" style="shape=umlLifeline;participant=umlActor;perimeter=lifelinePerimeter;whiteSpace=wrap;html=1;container=1;collapsible=0;recursiveResize=0;verticalAlign=top;spacingTop=36;outlineConnect=0;" parent="1" vertex="1">
          <mxGeometry x="100" y="70" width="20" height="701" as="geometry" />
        </mxCell>
        <mxCell id="r_-kAhgJVvPjxMnhOgyb-3" value="return" style="html=1;verticalAlign=bottom;endArrow=open;dashed=1;endSize=8;exitX=0;exitY=0.95;" edge="1" source="r_-kAhgJVvPjxMnhOgyb-1" parent="1" target="HcCG96OIo7KXhbLCu2V7-6">
          <mxGeometry relative="1" as="geometry">
            <mxPoint x="175" y="226" as="targetPoint" />
          </mxGeometry>
        </mxCell>
        <mxCell id="r_-kAhgJVvPjxMnhOgyb-2" value="ObjectData" style="html=1;verticalAlign=bottom;endArrow=block;entryX=0;entryY=0;" edge="1" target="r_-kAhgJVvPjxMnhOgyb-1" parent="1" source="HcCG96OIo7KXhbLCu2V7-6">
          <mxGeometry relative="1" as="geometry">
            <mxPoint x="175" y="150" as="sourcePoint" />
          </mxGeometry>
        </mxCell>
        <mxCell id="r_-kAhgJVvPjxMnhOgyb-5" value="" style="html=1;verticalAlign=bottom;endArrow=block;entryX=0;entryY=0;" edge="1" target="r_-kAhgJVvPjxMnhOgyb-4" parent="1" source="HcCG96OIo7KXhbLCu2V7-1">
          <mxGeometry relative="1" as="geometry">
            <mxPoint x="315" y="166" as="sourcePoint" />
          </mxGeometry>
        </mxCell>
        <mxCell id="r_-kAhgJVvPjxMnhOgyb-6" value="return" style="html=1;verticalAlign=bottom;endArrow=open;dashed=1;endSize=8;exitX=0;exitY=0.95;" edge="1" source="r_-kAhgJVvPjxMnhOgyb-4" parent="1" target="HcCG96OIo7KXhbLCu2V7-1">
          <mxGeometry relative="1" as="geometry">
            <mxPoint x="315" y="242" as="targetPoint" />
          </mxGeometry>
        </mxCell>
        <mxCell id="r_-kAhgJVvPjxMnhOgyb-8" value="IJobAdProvider.Publish_Before" style="html=1;verticalAlign=bottom;endArrow=block;entryX=0;entryY=0;" edge="1" target="r_-kAhgJVvPjxMnhOgyb-7" parent="1" source="HcCG96OIo7KXhbLCu2V7-2">
          <mxGeometry relative="1" as="geometry">
            <mxPoint x="595" y="179" as="sourcePoint" />
          </mxGeometry>
        </mxCell>
        <mxCell id="r_-kAhgJVvPjxMnhOgyb-9" value="return" style="html=1;verticalAlign=bottom;endArrow=open;dashed=1;endSize=8;exitX=0;exitY=0.95;" edge="1" source="r_-kAhgJVvPjxMnhOgyb-7" parent="1" target="HcCG96OIo7KXhbLCu2V7-2">
          <mxGeometry relative="1" as="geometry">
            <mxPoint x="595" y="255" as="targetPoint" />
          </mxGeometry>
        </mxCell>
        <mxCell id="r_-kAhgJVvPjxMnhOgyb-14" value="新版职位广告发布" style="text;html=1;align=center;verticalAlign=middle;resizable=0;points=[];autosize=1;" vertex="1" parent="1">
          <mxGeometry x="20" y="30" width="106" height="18" as="geometry" />
        </mxCell>
        <mxCell id="r_-kAhgJVvPjxMnhOgyb-16" value="" style="html=1;verticalAlign=bottom;endArrow=block;entryX=0;entryY=0;" edge="1" target="r_-kAhgJVvPjxMnhOgyb-15" parent="1" source="HcCG96OIo7KXhbLCu2V7-1">
          <mxGeometry relative="1" as="geometry">
            <mxPoint x="455" y="348" as="sourcePoint" />
          </mxGeometry>
        </mxCell>
        <mxCell id="r_-kAhgJVvPjxMnhOgyb-17" value="return" style="html=1;verticalAlign=bottom;endArrow=open;dashed=1;endSize=8;exitX=0;exitY=0.95;" edge="1" source="r_-kAhgJVvPjxMnhOgyb-15" parent="1" target="HcCG96OIo7KXhbLCu2V7-1">
          <mxGeometry relative="1" as="geometry">
            <mxPoint x="455" y="424" as="targetPoint" />
          </mxGeometry>
        </mxCell>
        <mxCell id="r_-kAhgJVvPjxMnhOgyb-20" value="return" style="html=1;verticalAlign=bottom;endArrow=open;dashed=1;endSize=8;exitX=0;exitY=0.95;" edge="1" source="r_-kAhgJVvPjxMnhOgyb-18" parent="1" target="HcCG96OIo7KXhbLCu2V7-3">
          <mxGeometry relative="1" as="geometry">
            <mxPoint x="595" y="445" as="targetPoint" />
          </mxGeometry>
        </mxCell>
        <mxCell id="r_-kAhgJVvPjxMnhOgyb-19" value="IJobAdProvider.&lt;br&gt;Publish" style="html=1;verticalAlign=bottom;endArrow=block;entryX=0;entryY=0;" edge="1" target="r_-kAhgJVvPjxMnhOgyb-18" parent="1" source="HcCG96OIo7KXhbLCu2V7-3">
          <mxGeometry relative="1" as="geometry">
            <mxPoint x="595" y="369" as="sourcePoint" />
          </mxGeometry>
        </mxCell>
        <mxCell id="r_-kAhgJVvPjxMnhOgyb-23" value="return" style="html=1;verticalAlign=bottom;endArrow=open;dashed=1;endSize=8;exitX=0;exitY=0.95;" edge="1" source="r_-kAhgJVvPjxMnhOgyb-21" parent="1" target="HcCG96OIo7KXhbLCu2V7-4">
          <mxGeometry relative="1" as="geometry">
            <mxPoint x="733" y="469" as="targetPoint" />
          </mxGeometry>
        </mxCell>
        <mxCell id="r_-kAhgJVvPjxMnhOgyb-22" value="IJobAdAdapterProvider.&lt;br&gt;NewPublish" style="html=1;verticalAlign=bottom;endArrow=block;entryX=0;entryY=0;" edge="1" target="r_-kAhgJVvPjxMnhOgyb-21" parent="1" source="HcCG96OIo7KXhbLCu2V7-4">
          <mxGeometry relative="1" as="geometry">
            <mxPoint x="733" y="393" as="sourcePoint" />
          </mxGeometry>
        </mxCell>
      </root>
    </mxGraphModel>
  </diagram>
</mxfile>
